#!OML:ASF H:\Terrain\Patient Classification 1\Animal2\Wednesday\Animal2.ASF
:FULLY-SPECIFIED
:DEGREES
1979
root 12.1336 15.6259 -13.3433 1.19864 20.1935 0.532209
lowerback 4.17678 0.259248 -0.838679
upperback -5.80861 -0.0475449 -4.86223
thorax -8.48184 -0.137881 -4.68719
lowerneck -1.46276 -0.701026 12.8679
upperneck -22.0087 -2.15881 -10.8504
head -6.62956 -1.20381 -5.66203
rclavicle -2.127e-014 -3.81667e-014
rhumerus 76.2101 -44.1315 -26.2713
rradius 34.1006
rwrist 10.6052
rhand -18.5565 12.3296
rfingers 7.12502
rthumb 7.73324 -17.5089
lclavicle -2.127e-014 -3.81667e-014
lhumerus -25.2283 -18.9009 63.8925
lradius 102.742
lwrist 38.9606
lhand -10.3772 11.8588
lfingers 7.12502
lthumb 15.6204 41.2482
rfemur 15.1679 2.22702 17.0796
rtibia 36.2864
rfoot -36.0675 -14.1075
rtoes -12.3285
lfemur -47.0754 -16.0403 -1.62932
ltibia 52.7768
lfoot -9.34606 -22.0265
ltoes 4.39136
1980
root 12.119 15.593 -13.3424 0.963065 20.5053 0.269076
lowerback 4.28081 0.316533 -0.596115
upperback -5.76278 0.0463474 -4.88698
thorax -8.48652 -0.107889 -4.86314
lowerneck -2.20406 -0.753746 13.2073
upperneck -21.2422 -2.37451 -11.4716
head -6.2837 -1.305 -5.89958
rclavicle 3.00165e-014 -3.49861e-014
rhumerus 76.9263 -44.2067 -27.1595
rradius 34.1498
rwrist 10.7187
rhand -18.743 12.2644
rfingers 7.12502
rthumb 7.55325 -17.5808
lclavicle 3.00165e-014 -3.49861e-014
lhumerus -25.9014 -18.5802 64.7577
lradius 102.858
lwrist 40.6738
lhand -10.2339 12.6603
lfingers 7.12502
lthumb 15.7584 42.0388
rfemur 15.422 1.7826 17.2808
rtibia 36.2383
rfoot -36.1961 -13.5127
rtoes -11.4325
lfemur -47.3622 -16.1374 -1.34753
ltibia 53.2215
lfoot -9.41148 -22.1864
ltoes 4.77325
1981
root 12.1022 15.5572 -13.3401 0.589741 20.8077 -0.307701
lowerback 4.39113 0.384299 -0.106097
upperback -5.71472 0.182561 -4.80508
thorax -8.48697 -0.0690792 -5.07013
lowerneck -1.47697 -0.7405 12.9178
upperneck -21.8917 -2.29084 -11.345
head -6.60325 -1.23298 -5.83054
rclavicle 1.55052e-014 -3.18055e-015
rhumerus 77.1727 -44.3139 -27.4127
rradius 34.3341
rwrist 10.2706
rhand -18.9612 11.9834
rfingers 7.12502
rthumb 7.34256 -17.8692
lclavicle 1.55052e-014 -3.18055e-015
lhumerus -26.66 -18.1239 65.6133
lradius 102.898
lwrist 41.9712
lhand -9.5031 13.442
lfingers 7.12502
lthumb 16.4621 42.7636
rfemur 15.6688 1.33841 17.8484
rtibia 36.2648
rfoot -36.4479 -13.0015
rtoes -11.261
lfemur -47.6576 -16.1096 -0.77171
ltibia 53.6969
lfoot -9.40497 -22.4402
ltoes 4.94111
1982
root 12.0846 15.5328 -13.3403 0.339537 21.1575 -0.490725
lowerback 4.61423 0.460142 0.0286453
upperback -5.73587 0.288114 -4.82729
thorax -8.63245 -0.0293969 -5.19
lowerneck 0.0588311 -0.852057 12.2457
upperneck -23.5563 -2.23557 -10.5619
head -7.40648 -1.17709 -5.5039
rclavicle 1.23246e-014 -1.59028e-015
rhumerus 77.1486 -44.3485 -27.3864
rradius 34.4161
rwrist 9.96601
rhand -19.3821 11.8234
rfingers 7.12502
rthumb 6.9363 -18.043
lclavicle 1.23246e-014 -1.59028e-015
lhumerus -27.6716 -17.6415 66.5264
lradius 102.776
lwrist 43.0819
lhand -8.49384 13.83
lfingers 7.12502
lthumb 17.4336 43.0682
rfemur 15.8524 0.961118 17.989
rtibia 36.355
rfoot -37.2131 -12.1043
rtoes -9.10557
lfemur -47.9061 -16.182 -0.62382
ltibia 54.1501
lfoot -9.25539 -22.6669
ltoes 5.05078
1983
root 12.0681 15.508 -13.3427 0.341143 21.5651 -0.426747
lowerback 4.7011 0.50378 -0.0577444
upperback -5.80268 0.328331 -4.92951
thorax -8.75428 -0.0102903 -5.2615
lowerneck 0.777191 -0.965682 12.0778
upperneck -24.322 -2.31337 -10.3519
head -7.7999 -1.20191 -5.42527
rclavicle -3.3197e-014 4.92986e-014
rhumerus 77.4482 -44.3226 -27.8696
rradius 34.4638
rwrist 10.201
rhand -19.7014 11.7683
rfingers 7.12502
rthumb 6.62812 -18.108
lclavicle -3.3197e-014 4.92986e-014
lhumerus -28.6871 -16.9951 67.4066
lradius 102.443
lwrist 44.0948
lhand -7.55261 14.4581
lfingers 7.12502
lthumb 18.3393 43.6136
rfemur 15.823 0.540593 17.8716
rtibia 36.555
rfoot -37.9091 -11.4367
rtoes -6.96825
lfemur -48.3475 -16.3222 -0.657937
ltibia 54.6018
lfoot -9.07173 -22.921
ltoes 5.3806
